<?xml version="1.0" standalone="no"?>
<!DOCTYPE svg PUBLIC "-//W3C//DTD SVG 20010904//EN"
 "http://www.w3.org/TR/2001/REC-SVG-20010904/DTD/svg10.dtd">
<svg version="1.0" xmlns="http://www.w3.org/2000/svg"
 width="746.000000pt" height="157.000000pt" viewBox="0 0 746.000000 157.000000"
 preserveAspectRatio="xMidYMid meet">

<g transform="translate(0.000000,157.000000) scale(0.100000,-0.100000)"
fill="#000000" stroke="none">
<path d="M10 990 l0 -580 3725 0 3725 0 0 580 0 580 -3725 0 -3725 0 0 -580z
m7400 0 l0 -530 -3675 0 -3675 0 0 530 0 530 3675 0 3675 0 0 -530z"/>
<path d="M4532 1149 c-69 -179 -168 -398 -188 -416 l-25 -23 68 1 c49 0 62 3
47 9 -35 14 -37 28 -14 86 l23 55 84 -3 85 -3 19 -50 c22 -57 19 -72 -13 -85
-17 -6 3 -9 67 -9 83 0 88 1 64 14 -21 11 -42 53 -109 222 -45 114 -86 212
-91 217 -5 5 -12 -1 -17 -15z m36 -181 c17 -45 30 -84 28 -86 -2 -1 -35 -2
-73 0 l-70 3 34 83 c19 45 38 82 42 82 4 0 22 -37 39 -82z"/>
<path d="M4879 1147 c-43 -29 -61 -63 -55 -106 7 -44 45 -83 128 -132 66 -39
108 -79 108 -105 0 -26 -23 -62 -47 -73 -64 -29 -137 6 -165 79 l-17 45 0 -79
c-1 -70 1 -78 13 -61 13 18 15 18 61 1 71 -27 130 -18 172 28 27 29 33 44 33
80 0 59 -28 92 -130 150 -112 65 -134 103 -85 151 29 30 74 33 116 8 29 -17
59 -67 59 -99 0 -9 3 -14 7 -10 7 7 11 146 4 146 -2 0 -9 -8 -16 -17 -12 -17
-15 -17 -49 0 -50 23 -96 21 -137 -6z"/>
<path d="M6005 1159 c-46 -13 -111 -73 -130 -121 -24 -59 -23 -153 2 -209 53
-119 198 -165 303 -95 124 82 141 276 33 378 -54 52 -132 70 -208 47z m131
-28 c52 -32 69 -81 69 -201 0 -119 -14 -157 -68 -190 -67 -41 -149 -12 -184
65 -26 57 -25 215 1 269 23 46 68 76 116 76 19 0 49 -9 66 -19z"/>
<path d="M605 1153 c44 -11 45 -17 45 -218 0 -201 -1 -207 -45 -218 -11 -2 23
-5 75 -5 73 0 89 2 69 9 -33 12 -39 32 -39 132 l0 77 53 0 c60 0 72 -6 86 -40
8 -20 10 -10 10 50 l1 75 -20 -32 c-18 -31 -23 -33 -75 -33 l-55 0 0 95 0 95
66 0 c77 0 101 -11 119 -53 l14 -32 1 53 0 52 -162 -1 c-90 -1 -154 -4 -143
-6z"/>
<path d="M980 1147 l25 -13 0 -199 0 -199 -25 -13 c-22 -11 -14 -13 65 -12 50
1 81 4 70 6 -44 11 -45 17 -45 218 0 201 1 207 45 218 11 2 -20 5 -70 6 -79 1
-87 -1 -65 -12z"/>
<path d="M1173 1142 c23 -14 46 -57 117 -220 48 -112 91 -204 96 -204 8 -1 82
168 141 325 15 41 37 77 55 92 l30 25 -69 -1 c-56 0 -64 -2 -45 -11 32 -16 28
-39 -27 -175 -69 -171 -66 -167 -89 -113 -11 25 -38 87 -61 139 -49 113 -51
136 -13 149 21 8 8 11 -68 11 -94 1 -95 1 -67 -17z"/>
<path d="M1650 1153 c46 -8 50 -24 50 -217 0 -100 -4 -187 -9 -194 -4 -7 -21
-17 -37 -22 -19 -5 30 -9 147 -9 l175 -1 18 50 c10 28 16 53 14 56 -3 2 -17
-14 -32 -36 -30 -46 -47 -52 -141 -48 l-70 3 -3 98 -3 97 61 0 c70 0 100 -12
100 -40 0 -11 5 -20 10 -20 6 0 10 30 10 70 0 40 -4 70 -10 70 -5 0 -10 -8
-10 -18 0 -32 -22 -42 -92 -42 l-68 0 0 95 0 95 84 0 c76 0 86 -2 100 -22 9
-12 16 -30 16 -40 0 -10 5 -18 10 -18 6 0 10 15 10 34 0 68 6 66 -184 65 -94
-1 -160 -4 -146 -6z"/>
<path d="M2225 1153 c44 -11 45 -17 45 -218 0 -201 -1 -207 -45 -218 -11 -2
23 -5 75 -5 72 -1 89 2 70 9 -36 15 -40 25 -40 122 l0 87 53 0 c60 0 72 -6 86
-40 8 -20 10 -10 10 50 l1 75 -20 -32 c-18 -31 -23 -33 -75 -33 l-55 0 0 95 0
95 66 0 c77 0 101 -11 119 -53 l14 -32 1 53 0 52 -162 -1 c-90 -1 -154 -4
-143 -6z"/>
<path d="M2590 1153 c46 -8 50 -24 50 -217 0 -100 -4 -187 -9 -194 -4 -7 -21
-17 -37 -22 -19 -5 30 -9 146 -9 l175 -1 18 51 c10 28 17 53 14 55 -2 2 -16
-14 -31 -36 -30 -46 -47 -52 -141 -48 l-70 3 -3 98 -3 97 61 0 c70 0 100 -12
100 -40 0 -11 5 -20 10 -20 6 0 10 30 10 70 0 40 -4 70 -10 70 -5 0 -10 -8
-10 -18 0 -32 -22 -42 -92 -42 l-68 0 0 95 0 95 84 0 c76 0 86 -2 100 -22 9
-12 16 -30 16 -40 0 -10 5 -18 11 -18 6 0 9 19 7 48 l-3 47 -175 1 c-96 1
-164 0 -150 -3z"/>
<path d="M3000 1153 c46 -8 50 -24 50 -217 0 -100 -4 -187 -9 -194 -4 -7 -21
-17 -37 -22 -19 -5 30 -9 147 -9 l175 -1 17 52 c9 29 15 53 13 55 -2 2 -15
-15 -30 -37 -30 -46 -47 -52 -141 -48 l-70 3 -3 98 -3 97 61 0 c70 0 100 -12
100 -40 0 -11 5 -20 10 -20 6 0 10 30 10 70 0 40 -4 70 -10 70 -5 0 -10 -8
-10 -18 0 -32 -22 -42 -92 -42 l-68 0 0 95 0 95 84 0 c76 0 86 -2 100 -22 9
-12 16 -30 16 -40 0 -10 5 -18 10 -18 6 0 10 15 10 34 0 68 6 66 -184 65 -94
-1 -160 -4 -146 -6z"/>
<path d="M3401 1108 c0 -45 2 -49 10 -28 19 47 39 60 91 60 l48 0 0 -199 c0
-207 -1 -213 -45 -224 -11 -2 23 -5 75 -5 52 0 86 2 75 5 -41 10 -45 28 -45
230 l0 193 48 0 c56 0 79 -14 91 -55 8 -27 9 -25 10 23 l1 52 -180 0 -180 0 1
-52z"/>
<path d="M3975 1153 c44 -11 45 -17 45 -218 0 -201 -1 -207 -45 -218 -11 -2
23 -5 75 -5 72 -1 89 2 70 9 -36 15 -40 25 -40 122 l0 87 53 0 c60 0 72 -6 86
-40 8 -20 10 -10 10 50 l1 75 -20 -32 c-18 -31 -23 -33 -75 -33 l-55 0 0 95 0
95 66 0 c77 0 101 -11 119 -53 l14 -32 1 53 0 52 -162 -1 c-90 -1 -154 -4
-143 -6z"/>
<path d="M5188 1149 l32 -10 0 -204 0 -204 -32 -10 c-26 -7 -11 -9 67 -9 55 0
91 3 80 5 -40 10 -45 22 -45 119 l0 94 100 0 100 0 0 -94 c0 -97 -5 -109 -45
-119 -11 -2 25 -5 80 -5 72 0 92 2 71 8 -16 5 -33 15 -38 22 -10 16 -9 370 1
387 4 6 21 16 37 21 21 6 1 8 -71 8 -55 0 -91 -3 -80 -5 40 -10 45 -23 45
-114 l0 -89 -100 0 -100 0 0 89 c0 91 5 104 45 114 11 2 -25 5 -80 5 -78 0
-93 -2 -67 -9z"/>
<path d="M5670 1147 l25 -13 0 -199 0 -199 -25 -13 c-22 -11 -15 -13 60 -12
47 0 78 3 70 6 -36 13 -40 33 -40 224 0 195 1 201 45 212 11 2 -20 5 -70 6
-79 1 -87 -1 -65 -12z"/>
<path d="M6327 1149 c58 -17 63 -34 63 -224 0 -179 -4 -198 -45 -208 -11 -3
16 -5 60 -5 66 0 74 1 48 9 l-33 10 0 165 0 166 148 -183 147 -184 3 214 c1
131 6 219 13 227 6 7 20 15 32 17 12 2 -14 4 -58 4 -44 0 -70 -2 -58 -4 40 -8
44 -24 41 -179 l-3 -148 -133 167 -133 167 -62 -1 c-55 -1 -59 -2 -30 -10z"/>
<path d="M2740 170 l0 -70 34 0 c49 0 65 20 61 76 -3 52 -15 64 -62 64 l-33 0
0 -70z m68 28 c-7 -19 -38 -22 -38 -4 0 10 9 16 21 16 12 0 19 -5 17 -12z m2
-53 c0 -8 -9 -15 -20 -15 -11 0 -20 7 -20 15 0 8 9 15 20 15 11 0 20 -7 20
-15z"/>
<path d="M2876 213 c10 -16 21 -46 24 -67 6 -50 30 -61 30 -14 0 18 9 48 20
66 24 38 24 42 7 42 -8 0 -19 -12 -26 -27 l-13 -28 -14 28 c-8 15 -22 27 -30
27 -14 0 -14 -3 2 -27z"/>
<path d="M3150 171 c0 -54 3 -72 13 -69 6 3 13 19 15 38 l3 33 40 -39 39 -38
0 72 c0 59 -3 70 -15 66 -9 -4 -15 -19 -15 -37 l0 -31 -40 39 -40 39 0 -73z"/>
<path d="M3309 222 c-45 -38 -16 -122 43 -122 25 0 68 44 68 70 0 26 -43 70
-68 70 -11 0 -30 -8 -43 -18z m76 -52 c0 -33 -2 -35 -35 -35 -29 0 -36 4 -38
23 -6 40 5 54 40 50 30 -3 33 -6 33 -38z"/>
<path d="M3440 170 c0 -58 3 -70 16 -70 12 0 15 7 12 25 -7 32 5 32 22 0 7
-14 20 -25 28 -25 10 0 8 8 -8 35 l-22 35 22 35 c18 29 19 35 6 35 -8 0 -22
-12 -30 -27 l-15 -28 -1 28 c0 17 -5 27 -15 27 -12 0 -15 -14 -15 -70z"/>
<path d="M3550 170 c0 -56 3 -70 15 -70 9 0 15 9 15 24 0 23 22 41 34 29 3 -4
6 -17 6 -30 0 -14 6 -23 15 -23 12 0 15 15 15 71 0 52 -3 70 -12 67 -7 -3 -14
-17 -16 -32 -3 -21 -8 -27 -25 -24 -17 2 -22 9 -20 31 1 18 -3 27 -12 27 -12
0 -15 -15 -15 -70z"/>
<path d="M3680 170 c0 -53 3 -70 14 -70 11 0 14 17 14 70 0 53 -3 70 -14 70
-11 0 -14 -17 -14 -70z"/>
<path d="M3790 170 l0 -70 34 0 c48 0 63 19 60 76 -3 52 -14 64 -61 64 l-33 0
0 -70z m70 25 c0 -8 -9 -15 -19 -15 -10 0 -21 7 -25 15 -4 11 1 15 19 15 16 0
25 -6 25 -15z m0 -56 c0 -5 -9 -9 -20 -9 -11 0 -20 6 -20 14 0 9 7 12 20 9 11
-3 20 -9 20 -14z"/>
<path d="M3910 171 c0 -51 4 -71 13 -71 7 0 13 10 14 21 1 12 7 27 12 32 15
15 40 -10 36 -34 -2 -12 2 -19 11 -19 11 0 14 16 14 71 0 52 -3 70 -12 67 -7
-3 -14 -17 -16 -31 -2 -19 -9 -27 -22 -27 -13 0 -20 8 -22 27 -2 14 -9 28 -15
31 -10 3 -13 -15 -13 -67z"/>
<path d="M4160 170 c0 -50 4 -70 13 -70 7 0 13 10 14 21 2 25 14 39 20 23 8
-23 32 -49 38 -42 4 3 1 16 -5 28 -9 16 -9 25 -1 33 15 15 14 50 -1 65 -7 7
-27 12 -45 12 l-33 0 0 -70z m63 25 c-3 -17 -30 -17 -37 0 -4 13 -1 16 17 13
12 -2 21 -7 20 -13z"/>
<path d="M4280 170 l0 -70 29 0 c42 0 74 30 74 70 0 40 -32 70 -74 70 l-29 0
0 -70z m75 0 c0 -29 -4 -36 -22 -38 -21 -3 -23 1 -23 38 0 37 2 41 23 38 18
-2 22 -9 22 -38z"/>
<path d="M4429 175 c14 -36 29 -65 32 -65 4 0 10 12 14 28 l7 27 16 -33 16
-32 23 57 c13 31 23 60 23 65 0 19 -17 6 -32 -24 l-16 -33 -13 34 -12 33 -14
-33 -15 -34 -15 38 c-8 20 -21 37 -28 37 -9 0 -5 -19 14 -65z"/>
<path d="M4730 198 c3 -62 2 -64 -24 -76 -23 -10 -25 -8 -46 49 -12 32 -24 59
-27 59 -4 0 -36 -72 -46 -105 -6 -19 -2 -20 70 -22 44 -2 82 2 90 8 8 7 13 34
13 70 0 47 -3 59 -16 59 -12 0 -15 -10 -14 -42z m-94 -65 c-11 -11 -19 6 -11
24 8 17 8 17 12 0 3 -10 2 -21 -1 -24z"/>
<path d="M3062 189 c-37 -87 -38 -84 22 -85 l53 0 -25 60 c-13 34 -26 63 -28
65 -2 2 -12 -16 -22 -40z m24 -56 c-11 -11 -19 6 -11 24 8 17 8 17 12 0 3 -10
2 -21 -1 -24z"/>
<path d="M4072 189 c-37 -87 -38 -84 22 -85 l53 0 -25 60 c-13 34 -26 63 -28
65 -2 2 -12 -16 -22 -40z m24 -56 c-11 -11 -19 6 -11 24 8 17 8 17 12 0 3 -10
2 -21 -1 -24z"/>
<path d="M1433 184 c-3 -8 -1 -20 4 -25 5 -5 244 -8 609 -7 591 3 599 3 599
23 0 20 -8 20 -603 23 -541 2 -603 1 -609 -14z"/>
<path d="M4873 174 c-3 -8 -1 -20 4 -25 5 -5 244 -8 609 -7 591 3 599 3 599
23 0 20 -8 20 -603 23 -541 2 -603 1 -609 -14z"/>
</g>
</svg>
